<svg id="Layer_1" data-name="Layer 1" xmlns="http://www.w3.org/2000/svg" viewBox="0 0 294.3 127"><defs><style>.cls-1{fill:#fff;}</style></defs><title>operator_logo_sdk_bw</title><g id="Page-1"><path id="Fill-1" class="cls-1" d="M66.5,24.86A41.64,41.64,0,1,1,24.86,66.5,41.64,41.64,0,0,1,66.5,24.86"/><path d="M66.5,109A42.5,42.5,0,1,1,109,66.5,42.55,42.55,0,0,1,66.5,109Zm0-83.27A40.77,40.77,0,1,0,107.28,66.5,40.82,40.82,0,0,0,66.5,25.73Z"/><path id="Fill-5" d="M42,72.85,75.89,29.77c.75,1.49,0,2.33-.29,3.23-3.08,8.43-6.11,16.92-9.33,25.31-.8,2.13-.46,2.63,1.78,2.63H89.84c.59,0,1.38-.3,1.73.34s-.4,1.15-.74,1.64L63.08,99.65c-.44.59-.88,1.48-1.68,1s-.3-1.34,0-2.09c2.13-7.79,4.17-15.58,6.4-23.37.55-1.84,0-2.23-1.68-2.18H45.42Z"/></g><path d="M122.73,52.79c0-5.19,2.46-10.86,9.21-10.86s9.21,5.67,9.21,10.86-2.43,10.86-9.21,10.86S122.73,58,122.73,52.79Zm14.7,0c0-3.45-1.41-7.41-5.49-7.41s-5.49,4.17-5.49,7.41c0,3.42,1.41,7.41,5.49,7.41S137.43,56,137.43,52.79Z"/><path d="M145.5,42.29h8.73c5.22,0,7.05,3.3,7.05,6.51,0,3-2,6.54-7.05,6.54H149.1v7.95h-3.6Zm12.06,6.51a2.9,2.9,0,0,0-3.15-3.09H149.1v6.21h5.31A2.94,2.94,0,0,0,157.56,48.8Z"/><path d="M164.58,42.29h13.68v3.39H168.18v5.07h6.21v3.39h-6.21V59.9h10.74v3.39H164.58Z"/><path d="M183,42.29h9.3c5.22,0,6.9,3.09,6.9,6.39a6.15,6.15,0,0,1-4.32,6l4.2,8.61H195L191,55.07h-4.38v8.22H183Zm9.36,9.36c2.34,0,3.12-1.44,3.12-3s-.66-3-3.12-3h-5.76v5.94Z"/><path d="M215.25,58.7h-8.31l-1.65,4.59h-3.81l7.83-21h3.57l7.8,21H216.9Zm-3.45-9.54a17.63,17.63,0,0,1-.69-2.13c-.18.63-.48,1.53-.69,2.13l-2.34,6.3h6Z"/><path d="M229.71,63.29h-3.6V45.74h-6V42.29h15.54v3.45h-6Z"/><path d="M237.69,52.79c0-5.19,2.46-10.86,9.21-10.86s9.21,5.67,9.21,10.86-2.43,10.86-9.21,10.86S237.69,58,237.69,52.79Zm14.7,0c0-3.45-1.41-7.41-5.49-7.41s-5.49,4.17-5.49,7.41c0,3.42,1.41,7.41,5.49,7.41S252.39,56,252.39,52.79Z"/><path d="M260.46,42.29h9.3c5.22,0,6.9,3.09,6.9,6.39a6.15,6.15,0,0,1-4.32,6l4.2,8.61h-4.05l-4.05-8.22h-4.38v8.22h-3.6Zm9.36,9.36c2.34,0,3.12-1.44,3.12-3s-.66-3-3.12-3h-5.76v5.94Z"/><path d="M122.73,93.53l4.44-1.64a6.86,6.86,0,0,0,6.28,4.32c2.88,0,4.8-1.32,4.8-3.88s-2.84-3.68-6-4.76c-4-1.36-8.48-2.92-8.48-8.24,0-4.08,3.32-7.52,9.2-7.52,4.88,0,8,2.56,9,6l-4.32,1.44a5,5,0,0,0-5-2.88c-2.52,0-4,1.08-4,3s2.44,2.88,5.36,3.84c4.08,1.44,9.11,3.2,9.11,9.12,0,5.4-4.31,8.44-9.83,8.44C128.13,100.77,124.25,98,122.73,93.53Z"/><path d="M157.37,72.29c9.79,0,13.47,7,13.47,14,0,6.4-3.36,14-13.63,14h-8.48v-28Zm8.51,14c0-4.72-2.23-9.48-7.55-9.48h-4.8v19h4.36C163.85,95.77,165.88,90.69,165.88,86.29Z"/><path d="M186.53,86.25l-5.08,6.2v7.84h-4.8v-28h4.8V85.73l10.67-13.44h5.6l-8,9.92,9.91,18.08H194Z"/></svg>