<svg id="Layer_1" data-name="Layer 1" xmlns="http://www.w3.org/2000/svg" viewBox="0 0 391.07 127"><defs><style>.cls-1{fill:#fff;}</style></defs><title>operator_logo_framework_bw</title><g id="Page-1"><path id="Fill-1" class="cls-1" d="M66.5,21.86A41.64,41.64,0,1,1,24.86,63.5,41.64,41.64,0,0,1,66.5,21.86"/><path d="M66.5,106A42.5,42.5,0,1,1,109,63.5,42.55,42.55,0,0,1,66.5,106Zm0-83.27A40.77,40.77,0,1,0,107.28,63.5,40.82,40.82,0,0,0,66.5,22.73Z"/><path id="Fill-5" d="M42,69.85,75.89,26.77c.75,1.49,0,2.33-.29,3.23-3.08,8.43-6.11,16.92-9.33,25.31-.8,2.13-.46,2.63,1.78,2.63H89.84c.59,0,1.38-.3,1.73.34s-.4,1.15-.74,1.64L63.08,96.65c-.44.59-.88,1.48-1.68,1s-.3-1.34,0-2.09c2.13-7.79,4.17-15.58,6.4-23.37.55-1.84,0-2.23-1.68-2.18H45.42Z"/></g><path d="M122.73,49.79c0-5.19,2.46-10.86,9.21-10.86s9.21,5.67,9.21,10.86-2.43,10.86-9.21,10.86S122.73,55,122.73,49.79Zm14.7,0c0-3.45-1.41-7.41-5.49-7.41s-5.49,4.17-5.49,7.41c0,3.42,1.41,7.41,5.49,7.41S137.43,53,137.43,49.79Z"/><path d="M145.5,39.29h8.73c5.22,0,7.05,3.3,7.05,6.51,0,3-2,6.54-7.05,6.54H149.1v7.95h-3.6Zm12.06,6.51a2.9,2.9,0,0,0-3.15-3.09H149.1v6.21h5.31A2.94,2.94,0,0,0,157.56,45.8Z"/><path d="M164.58,39.29h13.68v3.39H168.18v5.07h6.21v3.39h-6.21V56.9h10.74v3.39H164.58Z"/><path d="M183,39.29h9.3c5.22,0,6.9,3.09,6.9,6.39a6.15,6.15,0,0,1-4.32,6l4.2,8.61H195L191,52.07h-4.38v8.22H183Zm9.36,9.36c2.34,0,3.12-1.44,3.12-3s-.66-3-3.12-3h-5.76v5.94Z"/><path d="M215.25,55.7h-8.31l-1.65,4.59h-3.81l7.83-21h3.57l7.8,21H216.9Zm-3.45-9.54a17.63,17.63,0,0,1-.69-2.13c-.18.63-.48,1.53-.69,2.13l-2.34,6.3h6Z"/><path d="M229.71,60.29h-3.6V42.74h-6V39.29h15.54v3.45h-6Z"/><path d="M237.69,49.79c0-5.19,2.46-10.86,9.21-10.86s9.21,5.67,9.21,10.86-2.43,10.86-9.21,10.86S237.69,55,237.69,49.79Zm14.7,0c0-3.45-1.41-7.41-5.49-7.41s-5.49,4.17-5.49,7.41c0,3.42,1.41,7.41,5.49,7.41S252.39,53,252.39,49.79Z"/><path d="M260.46,39.29h9.3c5.22,0,6.9,3.09,6.9,6.39a6.15,6.15,0,0,1-4.32,6l4.2,8.61h-4.05l-4.05-8.22h-4.38v8.22h-3.6Zm9.36,9.36c2.34,0,3.12-1.44,3.12-3s-.66-3-3.12-3h-5.76v5.94Z"/><path d="M124.33,69.3h18.08v4.52H129.13v6.75h8.48v4.52h-8.48v12.2h-4.8Z"/><path d="M147,69.3h12.4c7,0,9.19,4.11,9.19,8.51a8.2,8.2,0,0,1-5.75,8l5.59,11.48H163l-5.39-11h-5.84v11H147Zm12.48,12.47c3.11,0,4.16-1.92,4.16-4,0-1.88-.88-4-4.16-4h-7.68v7.92Z"/><path d="M190.05,91.17H179l-2.2,6.12h-5.08l10.44-28h4.76l10.39,28h-5Zm-4.6-12.72a23.51,23.51,0,0,1-.92-2.84c-.24.84-.64,2-.92,2.84l-3.12,8.4h8Z"/><path d="M222.24,97.29V82.41c0-1,.08-2.6.16-3.36-.36,1.08-.88,2.44-1.28,3.44l-6.79,15.28-6.8-15.36c-.44-1-1-2.28-1.32-3.36.08.76.16,2.36.16,3.36V97.29h-4.8v-28h4.84l7.2,16.43c.28.68.56,1.44.76,2.08.2-.64.48-1.4.76-2.08l7.23-16.43H227v28Z"/><path d="M233.85,69.3h18.23v4.52H238.65v6.75h8.28v4.52h-8.28v7.68H253v4.52H233.85Z"/><path d="M256.37,69.3h4.92l3.32,16.47c.24,1.28.4,2,.48,2.68a23.22,23.22,0,0,1,.56-2.68l4.12-16.47h4.07L278,85.73a16.87,16.87,0,0,1,.56,2.68,26,26,0,0,1,.48-2.64L282.4,69.3h4.84l-6,28h-4.4L272.29,80a15.46,15.46,0,0,1-.56-2.6,18.09,18.09,0,0,1-.52,2.56l-4.44,17.36h-4.4Z"/><path d="M290.25,83.29c0-6.92,3.28-14.47,12.28-14.47s12.27,7.55,12.27,14.47-3.24,14.48-12.27,14.48S290.25,90.21,290.25,83.29Zm19.59,0c0-4.6-1.88-9.88-7.31-9.88s-7.32,5.56-7.32,9.88c0,4.56,1.88,9.88,7.32,9.88S309.84,87.57,309.84,83.29Z"/><path d="M320.61,69.3H333c6.95,0,9.19,4.11,9.19,8.51a8.2,8.2,0,0,1-5.76,8L342,97.29h-5.4l-5.39-11h-5.84v11h-4.8Zm12.48,12.47c3.11,0,4.15-1.92,4.15-4,0-1.88-.88-4-4.15-4h-7.68v7.92Z"/><path d="M357.89,83.25l-5.08,6.2v7.84H348v-28h4.8V82.73L363.48,69.3h5.6l-8,9.91L371,97.29h-5.6Z"/></svg>